<?xml version="1.0" encoding="UTF-8"?><svg xmlns="http://www.w3.org/2000/svg" viewBox="0 0 255.59 71.23"><defs><style>.d{fill:#ec008c;}.e{fill:#231f20;}</style></defs><g id="a"/><g id="b"><g id="c"><g><g><path class="e" d="M0,39.32c0-8.85,5.92-15.95,14.58-15.95,9.66,0,11.9,7.54,11.9,7.54v1.56h-1.56s-1.56-7.17-10.41-7.17c-8.1,0-12.46,6.98-12.46,14.02s4.36,13.96,12.53,13.96c9.04,0,10.41-7.29,10.41-7.29h1.56v1.56s-2.37,7.6-12.03,7.6c-8.6,0-14.52-6.92-14.52-15.83Z"/><path class="e" d="M32.28,46.05c0-5.11,3.61-8.91,12.71-8.91,4.8,0,8.66,.75,8.66,.75v-2.74c0-6.36-2.93-9.91-8.97-9.91-8.04,0-9.22,5.98-9.22,5.98h-1.56v-1.56s1.93-6.29,10.84-6.29c7.17,0,10.97,4.11,10.97,11.9v19.26h-1.62l-.19-7.42c-1.74,5.05-5.48,8.04-10.78,8.04-7.48,0-10.84-3.93-10.84-9.1Zm21.38-4.24v-2.12s-3.49-.75-8.72-.75c-8.35,0-10.72,3.43-10.72,7.1,0,4.55,3.12,7.29,8.97,7.29,7.29,0,10.47-6.17,10.47-11.53Z"/><path class="e" d="M66.06,7.79h2.06V54.53h-2.06V7.79Z"/><path class="e" d="M76.59,39.32c0-8.85,5.92-15.95,14.58-15.95,9.66,0,11.9,7.54,11.9,7.54v1.56h-1.56s-1.56-7.17-10.41-7.17c-8.1,0-12.46,6.98-12.46,14.02s4.36,13.96,12.53,13.96c9.04,0,10.41-7.29,10.41-7.29h1.56v1.56s-2.37,7.6-12.03,7.6c-8.6,0-14.52-6.92-14.52-15.83Z"/><path class="e" d="M110.99,42.25V23.99h2.06v17.32c0,8.6,3.86,11.97,9.78,11.97,4.8,0,10.16-3.18,10.16-11.9V23.99h2.06v30.54h-1.62l-.19-6.73c-1.68,4.74-5.3,7.35-10.41,7.35-7.17,0-11.84-3.93-11.84-12.9Z"/><path class="d" d="M145.76,7.79h2.06V54.53h-2.06V7.79Z"/><path class="d" d="M156.36,39.2c0-8.04,4.74-15.83,14.46-15.83,8.48,0,13.46,5.98,13.46,13.4,0,1.93-.12,2.74-.12,2.74h-25.74c.31,9.29,5.42,13.77,12.59,13.77,5.8,0,9.85-3.3,10.97-7.29h1.56v1.56c-.93,2.24-4.24,7.6-12.53,7.6-9.04,0-14.64-5.92-14.64-15.95Zm25.86-1.56c0-8.04-4.42-12.4-11.4-12.4s-11.65,4.55-12.34,12.4h23.74Z"/><path class="d" d="M191.88,9.66h3.55v3.55h-3.55v-3.55Zm.75,14.33h2.06v30.54h-2.06V23.99Z"/></g><path class="e" d="M194.68,66.87h1.02c9.59-.44,13.08-7.27,13.66-28.93l1.02-37.94h45.21V71.23h-4.8V4.36h-36.05l-1.02,35.18c-.44,14.25-1.31,31.69-17.01,31.69h-2.04v-4.36Z"/></g></g></g></svg>